<?xml version="1.0" encoding="UTF-8" standalone="no"?>
<!DOCTYPE svg PUBLIC "-//W3C//DTD SVG 1.1//EN"
 "http://www.w3.org/Graphics/SVG/1.1/DTD/svg11.dtd">
<!-- Generated by graphviz version 2.38.0 (20140413.2041)
 -->
<!-- Title: Tree Pages: 1 -->
<svg width="522pt" height="477pt"
 viewBox="0.00 0.00 522.00 477.00" xmlns="http://www.w3.org/2000/svg" xmlns:xlink="http://www.w3.org/1999/xlink">
<g id="graph0" class="graph" transform="scale(1 1) rotate(0) translate(4 473)">
<title>Tree</title>
<polygon fill="white" stroke="none" points="-4,4 -4,-473 518,-473 518,4 -4,4"/>
<!-- 0 -->
<g id="node1" class="node"><title>0</title>
<path fill="#a7d3f3" stroke="black" d="M273,-469C273,-469 184,-469 184,-469 178,-469 172,-463 172,-457 172,-457 172,-413 172,-413 172,-407 178,-401 184,-401 184,-401 273,-401 273,-401 279,-401 285,-407 285,-413 285,-413 285,-457 285,-457 285,-463 279,-469 273,-469"/>
<text text-anchor="middle" x="228.5" y="-453.8" font-family="Helvetica,sans-Serif" font-size="14.00">humidity &lt;= 0.5</text>
<text text-anchor="middle" x="228.5" y="-438.8" font-family="Helvetica,sans-Serif" font-size="14.00">gini = 0.459</text>
<text text-anchor="middle" x="228.5" y="-423.8" font-family="Helvetica,sans-Serif" font-size="14.00">samples = 14</text>
<text text-anchor="middle" x="228.5" y="-408.8" font-family="Helvetica,sans-Serif" font-size="14.00">value = [5, 9]</text>
</g>
<!-- 1 -->
<g id="node2" class="node"><title>1</title>
<path fill="brown" stroke="black" d="M210,-365C210,-365 127,-365 127,-365 121,-365 115,-359 115,-353 115,-353 115,-309 115,-309 115,-303 121,-297 127,-297 127,-297 210,-297 210,-297 216,-297 222,-303 222,-309 222,-309 222,-353 222,-353 222,-359 216,-365 210,-365"/>
<text text-anchor="middle" x="168.5" y="-349.8" font-family="Helvetica,sans-Serif" font-size="14.00">outlook &lt;= 0.5</text>
<text text-anchor="middle" x="168.5" y="-334.8" font-family="Helvetica,sans-Serif" font-size="14.00">gini = 0.49</text>
<text text-anchor="middle" x="168.5" y="-319.8" font-family="Helvetica,sans-Serif" font-size="14.00">samples = 7</text>
<text text-anchor="middle" x="168.5" y="-304.8" font-family="Helvetica,sans-Serif" font-size="14.00">value = [4, 3]</text>
</g>
<!-- 0&#45;&gt;1 -->
<g id="edge1" class="edge"><title>0&#45;&gt;1</title>
<path fill="none" stroke="black" d="M209.02,-400.884C203.99,-392.332 198.508,-383.013 193.248,-374.072"/>
<polygon fill="black" stroke="black" points="196.175,-372.144 188.088,-365.299 190.141,-375.693 196.175,-372.144"/>
<text text-anchor="middle" x="181.814" y="-385.799" font-family="Helvetica,sans-Serif" font-size="14.00">True</text>
</g>
<!-- 8 -->
<g id="node9" class="node"><title>8</title>
<path fill="forestgreen" stroke="black" d="M325,-365C325,-365 252,-365 252,-365 246,-365 240,-359 240,-353 240,-353 240,-309 240,-309 240,-303 246,-297 252,-297 252,-297 325,-297 325,-297 331,-297 337,-303 337,-309 337,-309 337,-353 337,-353 337,-359 331,-365 325,-365"/>
<text text-anchor="middle" x="288.5" y="-349.8" font-family="Helvetica,sans-Serif" font-size="14.00">windy &lt;= 0.5</text>
<text text-anchor="middle" x="288.5" y="-334.8" font-family="Helvetica,sans-Serif" font-size="14.00">gini = 0.245</text>
<text text-anchor="middle" x="288.5" y="-319.8" font-family="Helvetica,sans-Serif" font-size="14.00">samples = 7</text>
<text text-anchor="middle" x="288.5" y="-304.8" font-family="Helvetica,sans-Serif" font-size="14.00">value = [1, 6]</text>
</g>
<!-- 0&#45;&gt;8 -->
<g id="edge8" class="edge"><title>0&#45;&gt;8</title>
<path fill="none" stroke="black" d="M247.98,-400.884C253.01,-392.332 258.492,-383.013 263.752,-374.072"/>
<polygon fill="black" stroke="black" points="266.859,-375.693 268.912,-365.299 260.825,-372.144 266.859,-375.693"/>
<text text-anchor="middle" x="275.186" y="-385.799" font-family="Helvetica,sans-Serif" font-size="14.00">False</text>
</g>
<!-- 2 -->
<g id="node3" class="node"><title>2</title>
<path fill="brown" stroke="black" d="M85,-253.5C85,-253.5 12,-253.5 12,-253.5 6,-253.5 0,-247.5 0,-241.5 0,-241.5 0,-212.5 0,-212.5 0,-206.5 6,-200.5 12,-200.5 12,-200.5 85,-200.5 85,-200.5 91,-200.5 97,-206.5 97,-212.5 97,-212.5 97,-241.5 97,-241.5 97,-247.5 91,-253.5 85,-253.5"/>
<text text-anchor="middle" x="48.5" y="-238.3" font-family="Helvetica,sans-Serif" font-size="14.00">gini = 0.0</text>
<text text-anchor="middle" x="48.5" y="-223.3" font-family="Helvetica,sans-Serif" font-size="14.00">samples = 3</text>
<text text-anchor="middle" x="48.5" y="-208.3" font-family="Helvetica,sans-Serif" font-size="14.00">value = [3, 0]</text>
</g>
<!-- 1&#45;&gt;2 -->
<g id="edge2" class="edge"><title>1&#45;&gt;2</title>
<path fill="none" stroke="black" d="M129.539,-296.884C115.695,-285.116 100.14,-271.894 86.3863,-260.203"/>
<polygon fill="black" stroke="black" points="88.4096,-257.33 78.5234,-253.52 83.8761,-262.663 88.4096,-257.33"/>
</g>
<!-- 3 -->
<g id="node4" class="node"><title>3</title>
<path fill="forestgreen" stroke="black" d="M210,-261C210,-261 127,-261 127,-261 121,-261 115,-255 115,-249 115,-249 115,-205 115,-205 115,-199 121,-193 127,-193 127,-193 210,-193 210,-193 216,-193 222,-199 222,-205 222,-205 222,-249 222,-249 222,-255 216,-261 210,-261"/>
<text text-anchor="middle" x="168.5" y="-245.8" font-family="Helvetica,sans-Serif" font-size="14.00">outlook &lt;= 1.5</text>
<text text-anchor="middle" x="168.5" y="-230.8" font-family="Helvetica,sans-Serif" font-size="14.00">gini = 0.375</text>
<text text-anchor="middle" x="168.5" y="-215.8" font-family="Helvetica,sans-Serif" font-size="14.00">samples = 4</text>
<text text-anchor="middle" x="168.5" y="-200.8" font-family="Helvetica,sans-Serif" font-size="14.00">value = [1, 3]</text>
</g>
<!-- 1&#45;&gt;3 -->
<g id="edge3" class="edge"><title>1&#45;&gt;3</title>
<path fill="none" stroke="black" d="M168.5,-296.884C168.5,-288.778 168.5,-279.982 168.5,-271.472"/>
<polygon fill="black" stroke="black" points="172,-271.299 168.5,-261.299 165,-271.299 172,-271.299"/>
</g>
<!-- 4 -->
<g id="node5" class="node"><title>4</title>
<path fill="brown" stroke="black" d="M123,-149.5C123,-149.5 50,-149.5 50,-149.5 44,-149.5 38,-143.5 38,-137.5 38,-137.5 38,-108.5 38,-108.5 38,-102.5 44,-96.5 50,-96.5 50,-96.5 123,-96.5 123,-96.5 129,-96.5 135,-102.5 135,-108.5 135,-108.5 135,-137.5 135,-137.5 135,-143.5 129,-149.5 123,-149.5"/>
<text text-anchor="middle" x="86.5" y="-134.3" font-family="Helvetica,sans-Serif" font-size="14.00">gini = 0.0</text>
<text text-anchor="middle" x="86.5" y="-119.3" font-family="Helvetica,sans-Serif" font-size="14.00">samples = 2</text>
<text text-anchor="middle" x="86.5" y="-104.3" font-family="Helvetica,sans-Serif" font-size="14.00">value = [0, 2]</text>
</g>
<!-- 3&#45;&gt;4 -->
<g id="edge4" class="edge"><title>3&#45;&gt;4</title>
<path fill="none" stroke="black" d="M141.877,-192.884C132.77,-181.556 122.58,-168.88 113.448,-157.521"/>
<polygon fill="black" stroke="black" points="116.009,-155.121 107.016,-149.52 110.554,-159.507 116.009,-155.121"/>
</g>
<!-- 5 -->
<g id="node6" class="node"><title>5</title>
<path fill="forestgreen" stroke="black" d="M238,-157C238,-157 165,-157 165,-157 159,-157 153,-151 153,-145 153,-145 153,-101 153,-101 153,-95 159,-89 165,-89 165,-89 238,-89 238,-89 244,-89 250,-95 250,-101 250,-101 250,-145 250,-145 250,-151 244,-157 238,-157"/>
<text text-anchor="middle" x="201.5" y="-141.8" font-family="Helvetica,sans-Serif" font-size="14.00">windy &lt;= 0.5</text>
<text text-anchor="middle" x="201.5" y="-126.8" font-family="Helvetica,sans-Serif" font-size="14.00">gini = 0.5</text>
<text text-anchor="middle" x="201.5" y="-111.8" font-family="Helvetica,sans-Serif" font-size="14.00">samples = 2</text>
<text text-anchor="middle" x="201.5" y="-96.8" font-family="Helvetica,sans-Serif" font-size="14.00">value = [1, 1]</text>
</g>
<!-- 3&#45;&gt;5 -->
<g id="edge5" class="edge"><title>3&#45;&gt;5</title>
<path fill="none" stroke="black" d="M179.214,-192.884C181.894,-184.6 184.807,-175.595 187.617,-166.911"/>
<polygon fill="black" stroke="black" points="190.978,-167.891 190.727,-157.299 184.318,-165.736 190.978,-167.891"/>
</g>
<!-- 6 -->
<g id="node7" class="node"><title>6</title>
<path fill="brown" stroke="black" d="M180,-53C180,-53 107,-53 107,-53 101,-53 95,-47 95,-41 95,-41 95,-12 95,-12 95,-6 101,-0 107,-0 107,-0 180,-0 180,-0 186,-0 192,-6 192,-12 192,-12 192,-41 192,-41 192,-47 186,-53 180,-53"/>
<text text-anchor="middle" x="143.5" y="-37.8" font-family="Helvetica,sans-Serif" font-size="14.00">gini = 0.0</text>
<text text-anchor="middle" x="143.5" y="-22.8" font-family="Helvetica,sans-Serif" font-size="14.00">samples = 1</text>
<text text-anchor="middle" x="143.5" y="-7.8" font-family="Helvetica,sans-Serif" font-size="14.00">value = [0, 1]</text>
</g>
<!-- 5&#45;&gt;6 -->
<g id="edge6" class="edge"><title>5&#45;&gt;6</title>
<path fill="none" stroke="black" d="M181.214,-88.9485C175.824,-80.1664 169.992,-70.6629 164.561,-61.815"/>
<polygon fill="black" stroke="black" points="167.51,-59.9287 159.296,-53.2367 161.544,-63.5903 167.51,-59.9287"/>
</g>
<!-- 7 -->
<g id="node8" class="node"><title>7</title>
<path fill="forestgreen" stroke="black" d="M295,-53C295,-53 222,-53 222,-53 216,-53 210,-47 210,-41 210,-41 210,-12 210,-12 210,-6 216,-0 222,-0 222,-0 295,-0 295,-0 301,-0 307,-6 307,-12 307,-12 307,-41 307,-41 307,-47 301,-53 295,-53"/>
<text text-anchor="middle" x="258.5" y="-37.8" font-family="Helvetica,sans-Serif" font-size="14.00">gini = 0.0</text>
<text text-anchor="middle" x="258.5" y="-22.8" font-family="Helvetica,sans-Serif" font-size="14.00">samples = 1</text>
<text text-anchor="middle" x="258.5" y="-7.8" font-family="Helvetica,sans-Serif" font-size="14.00">value = [1, 0]</text>
</g>
<!-- 5&#45;&gt;7 -->
<g id="edge7" class="edge"><title>5&#45;&gt;7</title>
<path fill="none" stroke="black" d="M221.436,-88.9485C226.733,-80.1664 232.465,-70.6629 237.802,-61.815"/>
<polygon fill="black" stroke="black" points="240.808,-63.6074 242.976,-53.2367 234.814,-59.9919 240.808,-63.6074"/>
</g>
<!-- 9 -->
<g id="node10" class="node"><title>9</title>
<path fill="brown" stroke="black" d="M325,-253.5C325,-253.5 252,-253.5 252,-253.5 246,-253.5 240,-247.5 240,-241.5 240,-241.5 240,-212.5 240,-212.5 240,-206.5 246,-200.5 252,-200.5 252,-200.5 325,-200.5 325,-200.5 331,-200.5 337,-206.5 337,-212.5 337,-212.5 337,-241.5 337,-241.5 337,-247.5 331,-253.5 325,-253.5"/>
<text text-anchor="middle" x="288.5" y="-238.3" font-family="Helvetica,sans-Serif" font-size="14.00">gini = 0.0</text>
<text text-anchor="middle" x="288.5" y="-223.3" font-family="Helvetica,sans-Serif" font-size="14.00">samples = 4</text>
<text text-anchor="middle" x="288.5" y="-208.3" font-family="Helvetica,sans-Serif" font-size="14.00">value = [0, 4]</text>
</g>
<!-- 8&#45;&gt;9 -->
<g id="edge9" class="edge"><title>8&#45;&gt;9</title>
<path fill="none" stroke="black" d="M288.5,-296.884C288.5,-286.326 288.5,-274.597 288.5,-263.854"/>
<polygon fill="black" stroke="black" points="292,-263.52 288.5,-253.52 285,-263.52 292,-263.52"/>
</g>
<!-- 10 -->
<g id="node11" class="node"><title>10</title>
<path fill="forestgreen" stroke="black" d="M450,-261C450,-261 367,-261 367,-261 361,-261 355,-255 355,-249 355,-249 355,-205 355,-205 355,-199 361,-193 367,-193 367,-193 450,-193 450,-193 456,-193 462,-199 462,-205 462,-205 462,-249 462,-249 462,-255 456,-261 450,-261"/>
<text text-anchor="middle" x="408.5" y="-245.8" font-family="Helvetica,sans-Serif" font-size="14.00">outlook &lt;= 1.5</text>
<text text-anchor="middle" x="408.5" y="-230.8" font-family="Helvetica,sans-Serif" font-size="14.00">gini = 0.444</text>
<text text-anchor="middle" x="408.5" y="-215.8" font-family="Helvetica,sans-Serif" font-size="14.00">samples = 3</text>
<text text-anchor="middle" x="408.5" y="-200.8" font-family="Helvetica,sans-Serif" font-size="14.00">value = [1, 2]</text>
</g>
<!-- 8&#45;&gt;10 -->
<g id="edge10" class="edge"><title>8&#45;&gt;10</title>
<path fill="none" stroke="black" d="M327.461,-296.884C338.359,-287.62 350.318,-277.455 361.623,-267.845"/>
<polygon fill="black" stroke="black" points="363.972,-270.443 369.324,-261.299 359.438,-265.109 363.972,-270.443"/>
</g>
<!-- 11 -->
<g id="node12" class="node"><title>11</title>
<path fill="brown" stroke="black" d="M387,-149.5C387,-149.5 314,-149.5 314,-149.5 308,-149.5 302,-143.5 302,-137.5 302,-137.5 302,-108.5 302,-108.5 302,-102.5 308,-96.5 314,-96.5 314,-96.5 387,-96.5 387,-96.5 393,-96.5 399,-102.5 399,-108.5 399,-108.5 399,-137.5 399,-137.5 399,-143.5 393,-149.5 387,-149.5"/>
<text text-anchor="middle" x="350.5" y="-134.3" font-family="Helvetica,sans-Serif" font-size="14.00">gini = 0.0</text>
<text text-anchor="middle" x="350.5" y="-119.3" font-family="Helvetica,sans-Serif" font-size="14.00">samples = 2</text>
<text text-anchor="middle" x="350.5" y="-104.3" font-family="Helvetica,sans-Serif" font-size="14.00">value = [0, 2]</text>
</g>
<!-- 10&#45;&gt;11 -->
<g id="edge11" class="edge"><title>10&#45;&gt;11</title>
<path fill="none" stroke="black" d="M389.669,-192.884C383.415,-181.886 376.439,-169.617 370.127,-158.517"/>
<polygon fill="black" stroke="black" points="372.997,-156.483 365.011,-149.52 366.912,-159.943 372.997,-156.483"/>
</g>
<!-- 12 -->
<g id="node13" class="node"><title>12</title>
<path fill="forestgreen" stroke="black" d="M502,-149.5C502,-149.5 429,-149.5 429,-149.5 423,-149.5 417,-143.5 417,-137.5 417,-137.5 417,-108.5 417,-108.5 417,-102.5 423,-96.5 429,-96.5 429,-96.5 502,-96.5 502,-96.5 508,-96.5 514,-102.5 514,-108.5 514,-108.5 514,-137.5 514,-137.5 514,-143.5 508,-149.5 502,-149.5"/>
<text text-anchor="middle" x="465.5" y="-134.3" font-family="Helvetica,sans-Serif" font-size="14.00">gini = 0.0</text>
<text text-anchor="middle" x="465.5" y="-119.3" font-family="Helvetica,sans-Serif" font-size="14.00">samples = 1</text>
<text text-anchor="middle" x="465.5" y="-104.3" font-family="Helvetica,sans-Serif" font-size="14.00">value = [1, 0]</text>
</g>
<!-- 10&#45;&gt;12 -->
<g id="edge12" class="edge"><title>10&#45;&gt;12</title>
<path fill="none" stroke="black" d="M427.006,-192.884C433.152,-181.886 440.008,-169.617 446.211,-158.517"/>
<polygon fill="black" stroke="black" points="449.416,-159.957 451.239,-149.52 443.305,-156.542 449.416,-159.957"/>
</g>
</g>
</svg>
