<?xml version="1.0" encoding="UTF-8" standalone="no"?>
<!DOCTYPE svg PUBLIC "-//W3C//DTD SVG 1.1//EN"
 "http://www.w3.org/Graphics/SVG/1.1/DTD/svg11.dtd">
<!-- Generated by graphviz version 2.38.0 (20140413.2041)
 -->
<!-- Title: Tree Pages: 1 -->
<svg width="549pt" height="477pt"
 viewBox="0.00 0.00 549.00 477.00" xmlns="http://www.w3.org/2000/svg" xmlns:xlink="http://www.w3.org/1999/xlink">
<g id="graph0" class="graph" transform="scale(1 1) rotate(0) translate(4 473)">
<title>Tree</title>
<polygon fill="white" stroke="none" points="-4,4 -4,-473 545,-473 545,4 -4,4"/>
<!-- 0 -->
<g id="node1" class="node"><title>0</title>
<path fill="#a7d3f3" stroke="black" d="M285.5,-469C285.5,-469 196.5,-469 196.5,-469 190.5,-469 184.5,-463 184.5,-457 184.5,-457 184.5,-413 184.5,-413 184.5,-407 190.5,-401 196.5,-401 196.5,-401 285.5,-401 285.5,-401 291.5,-401 297.5,-407 297.5,-413 297.5,-413 297.5,-457 297.5,-457 297.5,-463 291.5,-469 285.5,-469"/>
<text text-anchor="middle" x="241" y="-453.8" font-family="Helvetica,sans-Serif" font-size="14.00">humidity &lt;= 0.5</text>
<text text-anchor="middle" x="241" y="-438.8" font-family="Helvetica,sans-Serif" font-size="14.00">entropy = 0.94</text>
<text text-anchor="middle" x="241" y="-423.8" font-family="Helvetica,sans-Serif" font-size="14.00">samples = 14</text>
<text text-anchor="middle" x="241" y="-408.8" font-family="Helvetica,sans-Serif" font-size="14.00">value = [5, 9]</text>
</g>
<!-- 1 -->
<g id="node2" class="node"><title>1</title>
<path fill="brown" stroke="black" d="M220,-365C220,-365 128,-365 128,-365 122,-365 116,-359 116,-353 116,-353 116,-309 116,-309 116,-303 122,-297 128,-297 128,-297 220,-297 220,-297 226,-297 232,-303 232,-309 232,-309 232,-353 232,-353 232,-359 226,-365 220,-365"/>
<text text-anchor="middle" x="174" y="-349.8" font-family="Helvetica,sans-Serif" font-size="14.00">outlook &lt;= 0.5</text>
<text text-anchor="middle" x="174" y="-334.8" font-family="Helvetica,sans-Serif" font-size="14.00">entropy = 0.985</text>
<text text-anchor="middle" x="174" y="-319.8" font-family="Helvetica,sans-Serif" font-size="14.00">samples = 7</text>
<text text-anchor="middle" x="174" y="-304.8" font-family="Helvetica,sans-Serif" font-size="14.00">value = [4, 3]</text>
</g>
<!-- 0&#45;&gt;1 -->
<g id="edge1" class="edge"><title>0&#45;&gt;1</title>
<path fill="none" stroke="black" d="M219.247,-400.884C213.572,-392.243 207.381,-382.819 201.452,-373.793"/>
<polygon fill="black" stroke="black" points="204.289,-371.736 195.873,-365.299 198.438,-375.579 204.289,-371.736"/>
<text text-anchor="middle" x="190.803" y="-386.08" font-family="Helvetica,sans-Serif" font-size="14.00">True</text>
</g>
<!-- 8 -->
<g id="node9" class="node"><title>8</title>
<path fill="forestgreen" stroke="black" d="M354,-365C354,-365 262,-365 262,-365 256,-365 250,-359 250,-353 250,-353 250,-309 250,-309 250,-303 256,-297 262,-297 262,-297 354,-297 354,-297 360,-297 366,-303 366,-309 366,-309 366,-353 366,-353 366,-359 360,-365 354,-365"/>
<text text-anchor="middle" x="308" y="-349.8" font-family="Helvetica,sans-Serif" font-size="14.00">windy &lt;= 0.5</text>
<text text-anchor="middle" x="308" y="-334.8" font-family="Helvetica,sans-Serif" font-size="14.00">entropy = 0.592</text>
<text text-anchor="middle" x="308" y="-319.8" font-family="Helvetica,sans-Serif" font-size="14.00">samples = 7</text>
<text text-anchor="middle" x="308" y="-304.8" font-family="Helvetica,sans-Serif" font-size="14.00">value = [1, 6]</text>
</g>
<!-- 0&#45;&gt;8 -->
<g id="edge8" class="edge"><title>0&#45;&gt;8</title>
<path fill="none" stroke="black" d="M262.753,-400.884C268.428,-392.243 274.619,-382.819 280.548,-373.793"/>
<polygon fill="black" stroke="black" points="283.562,-375.579 286.127,-365.299 277.711,-371.736 283.562,-375.579"/>
<text text-anchor="middle" x="291.197" y="-386.08" font-family="Helvetica,sans-Serif" font-size="14.00">False</text>
</g>
<!-- 2 -->
<g id="node3" class="node"><title>2</title>
<path fill="brown" stroke="black" d="M88,-253.5C88,-253.5 12,-253.5 12,-253.5 6,-253.5 0,-247.5 0,-241.5 0,-241.5 0,-212.5 0,-212.5 0,-206.5 6,-200.5 12,-200.5 12,-200.5 88,-200.5 88,-200.5 94,-200.5 100,-206.5 100,-212.5 100,-212.5 100,-241.5 100,-241.5 100,-247.5 94,-253.5 88,-253.5"/>
<text text-anchor="middle" x="50" y="-238.3" font-family="Helvetica,sans-Serif" font-size="14.00">entropy = 0.0</text>
<text text-anchor="middle" x="50" y="-223.3" font-family="Helvetica,sans-Serif" font-size="14.00">samples = 3</text>
<text text-anchor="middle" x="50" y="-208.3" font-family="Helvetica,sans-Serif" font-size="14.00">value = [3, 0]</text>
</g>
<!-- 1&#45;&gt;2 -->
<g id="edge2" class="edge"><title>1&#45;&gt;2</title>
<path fill="none" stroke="black" d="M133.741,-296.884C119.301,-285.006 103.06,-271.646 88.7512,-259.876"/>
<polygon fill="black" stroke="black" points="90.9706,-257.17 81.0242,-253.52 86.5237,-262.576 90.9706,-257.17"/>
</g>
<!-- 3 -->
<g id="node4" class="node"><title>3</title>
<path fill="forestgreen" stroke="black" d="M222,-261C222,-261 130,-261 130,-261 124,-261 118,-255 118,-249 118,-249 118,-205 118,-205 118,-199 124,-193 130,-193 130,-193 222,-193 222,-193 228,-193 234,-199 234,-205 234,-205 234,-249 234,-249 234,-255 228,-261 222,-261"/>
<text text-anchor="middle" x="176" y="-245.8" font-family="Helvetica,sans-Serif" font-size="14.00">outlook &lt;= 1.5</text>
<text text-anchor="middle" x="176" y="-230.8" font-family="Helvetica,sans-Serif" font-size="14.00">entropy = 0.811</text>
<text text-anchor="middle" x="176" y="-215.8" font-family="Helvetica,sans-Serif" font-size="14.00">samples = 4</text>
<text text-anchor="middle" x="176" y="-200.8" font-family="Helvetica,sans-Serif" font-size="14.00">value = [1, 3]</text>
</g>
<!-- 1&#45;&gt;3 -->
<g id="edge3" class="edge"><title>1&#45;&gt;3</title>
<path fill="none" stroke="black" d="M174.649,-296.884C174.808,-288.778 174.981,-279.982 175.148,-271.472"/>
<polygon fill="black" stroke="black" points="178.65,-271.366 175.347,-261.299 171.652,-271.229 178.65,-271.366"/>
</g>
<!-- 4 -->
<g id="node5" class="node"><title>4</title>
<path fill="brown" stroke="black" d="M133,-149.5C133,-149.5 57,-149.5 57,-149.5 51,-149.5 45,-143.5 45,-137.5 45,-137.5 45,-108.5 45,-108.5 45,-102.5 51,-96.5 57,-96.5 57,-96.5 133,-96.5 133,-96.5 139,-96.5 145,-102.5 145,-108.5 145,-108.5 145,-137.5 145,-137.5 145,-143.5 139,-149.5 133,-149.5"/>
<text text-anchor="middle" x="95" y="-134.3" font-family="Helvetica,sans-Serif" font-size="14.00">entropy = 0.0</text>
<text text-anchor="middle" x="95" y="-119.3" font-family="Helvetica,sans-Serif" font-size="14.00">samples = 2</text>
<text text-anchor="middle" x="95" y="-104.3" font-family="Helvetica,sans-Serif" font-size="14.00">value = [0, 2]</text>
</g>
<!-- 3&#45;&gt;4 -->
<g id="edge4" class="edge"><title>3&#45;&gt;4</title>
<path fill="none" stroke="black" d="M149.702,-192.884C140.706,-181.556 130.64,-168.88 121.619,-157.521"/>
<polygon fill="black" stroke="black" points="124.226,-155.174 115.266,-149.52 118.744,-159.528 124.226,-155.174"/>
</g>
<!-- 5 -->
<g id="node6" class="node"><title>5</title>
<path fill="forestgreen" stroke="black" d="M251,-157C251,-157 175,-157 175,-157 169,-157 163,-151 163,-145 163,-145 163,-101 163,-101 163,-95 169,-89 175,-89 175,-89 251,-89 251,-89 257,-89 263,-95 263,-101 263,-101 263,-145 263,-145 263,-151 257,-157 251,-157"/>
<text text-anchor="middle" x="213" y="-141.8" font-family="Helvetica,sans-Serif" font-size="14.00">windy &lt;= 0.5</text>
<text text-anchor="middle" x="213" y="-126.8" font-family="Helvetica,sans-Serif" font-size="14.00">entropy = 1.0</text>
<text text-anchor="middle" x="213" y="-111.8" font-family="Helvetica,sans-Serif" font-size="14.00">samples = 2</text>
<text text-anchor="middle" x="213" y="-96.8" font-family="Helvetica,sans-Serif" font-size="14.00">value = [1, 1]</text>
</g>
<!-- 3&#45;&gt;5 -->
<g id="edge5" class="edge"><title>3&#45;&gt;5</title>
<path fill="none" stroke="black" d="M188.013,-192.884C191.018,-184.6 194.284,-175.595 197.434,-166.911"/>
<polygon fill="black" stroke="black" points="200.801,-167.894 200.921,-157.299 194.221,-165.506 200.801,-167.894"/>
</g>
<!-- 6 -->
<g id="node7" class="node"><title>6</title>
<path fill="brown" stroke="black" d="M192,-53C192,-53 116,-53 116,-53 110,-53 104,-47 104,-41 104,-41 104,-12 104,-12 104,-6 110,-0 116,-0 116,-0 192,-0 192,-0 198,-0 204,-6 204,-12 204,-12 204,-41 204,-41 204,-47 198,-53 192,-53"/>
<text text-anchor="middle" x="154" y="-37.8" font-family="Helvetica,sans-Serif" font-size="14.00">entropy = 0.0</text>
<text text-anchor="middle" x="154" y="-22.8" font-family="Helvetica,sans-Serif" font-size="14.00">samples = 1</text>
<text text-anchor="middle" x="154" y="-7.8" font-family="Helvetica,sans-Serif" font-size="14.00">value = [0, 1]</text>
</g>
<!-- 5&#45;&gt;6 -->
<g id="edge6" class="edge"><title>5&#45;&gt;6</title>
<path fill="none" stroke="black" d="M192.365,-88.9485C186.882,-80.1664 180.948,-70.6629 175.424,-61.815"/>
<polygon fill="black" stroke="black" points="178.333,-59.8656 170.068,-53.2367 172.396,-63.5728 178.333,-59.8656"/>
</g>
<!-- 7 -->
<g id="node8" class="node"><title>7</title>
<path fill="forestgreen" stroke="black" d="M310,-53C310,-53 234,-53 234,-53 228,-53 222,-47 222,-41 222,-41 222,-12 222,-12 222,-6 228,-0 234,-0 234,-0 310,-0 310,-0 316,-0 322,-6 322,-12 322,-12 322,-41 322,-41 322,-47 316,-53 310,-53"/>
<text text-anchor="middle" x="272" y="-37.8" font-family="Helvetica,sans-Serif" font-size="14.00">entropy = 0.0</text>
<text text-anchor="middle" x="272" y="-22.8" font-family="Helvetica,sans-Serif" font-size="14.00">samples = 1</text>
<text text-anchor="middle" x="272" y="-7.8" font-family="Helvetica,sans-Serif" font-size="14.00">value = [1, 0]</text>
</g>
<!-- 5&#45;&gt;7 -->
<g id="edge7" class="edge"><title>5&#45;&gt;7</title>
<path fill="none" stroke="black" d="M233.635,-88.9485C239.118,-80.1664 245.052,-70.6629 250.576,-61.815"/>
<polygon fill="black" stroke="black" points="253.604,-63.5728 255.932,-53.2367 247.667,-59.8656 253.604,-63.5728"/>
</g>
<!-- 9 -->
<g id="node10" class="node"><title>9</title>
<path fill="brown" stroke="black" d="M344,-253.5C344,-253.5 268,-253.5 268,-253.5 262,-253.5 256,-247.5 256,-241.5 256,-241.5 256,-212.5 256,-212.5 256,-206.5 262,-200.5 268,-200.5 268,-200.5 344,-200.5 344,-200.5 350,-200.5 356,-206.5 356,-212.5 356,-212.5 356,-241.5 356,-241.5 356,-247.5 350,-253.5 344,-253.5"/>
<text text-anchor="middle" x="306" y="-238.3" font-family="Helvetica,sans-Serif" font-size="14.00">entropy = 0.0</text>
<text text-anchor="middle" x="306" y="-223.3" font-family="Helvetica,sans-Serif" font-size="14.00">samples = 4</text>
<text text-anchor="middle" x="306" y="-208.3" font-family="Helvetica,sans-Serif" font-size="14.00">value = [0, 4]</text>
</g>
<!-- 8&#45;&gt;9 -->
<g id="edge9" class="edge"><title>8&#45;&gt;9</title>
<path fill="none" stroke="black" d="M307.351,-296.884C307.141,-286.216 306.909,-274.352 306.696,-263.519"/>
<polygon fill="black" stroke="black" points="310.196,-263.449 306.5,-253.52 303.197,-263.587 310.196,-263.449"/>
</g>
<!-- 10 -->
<g id="node11" class="node"><title>10</title>
<path fill="forestgreen" stroke="black" d="M478,-261C478,-261 386,-261 386,-261 380,-261 374,-255 374,-249 374,-249 374,-205 374,-205 374,-199 380,-193 386,-193 386,-193 478,-193 478,-193 484,-193 490,-199 490,-205 490,-205 490,-249 490,-249 490,-255 484,-261 478,-261"/>
<text text-anchor="middle" x="432" y="-245.8" font-family="Helvetica,sans-Serif" font-size="14.00">outlook &lt;= 1.5</text>
<text text-anchor="middle" x="432" y="-230.8" font-family="Helvetica,sans-Serif" font-size="14.00">entropy = 0.918</text>
<text text-anchor="middle" x="432" y="-215.8" font-family="Helvetica,sans-Serif" font-size="14.00">samples = 3</text>
<text text-anchor="middle" x="432" y="-200.8" font-family="Helvetica,sans-Serif" font-size="14.00">value = [1, 2]</text>
</g>
<!-- 8&#45;&gt;10 -->
<g id="edge10" class="edge"><title>8&#45;&gt;10</title>
<path fill="none" stroke="black" d="M348.259,-296.884C359.521,-287.62 371.878,-277.455 383.56,-267.845"/>
<polygon fill="black" stroke="black" points="386.019,-270.355 391.518,-261.299 381.572,-264.949 386.019,-270.355"/>
</g>
<!-- 11 -->
<g id="node12" class="node"><title>11</title>
<path fill="brown" stroke="black" d="M411,-149.5C411,-149.5 335,-149.5 335,-149.5 329,-149.5 323,-143.5 323,-137.5 323,-137.5 323,-108.5 323,-108.5 323,-102.5 329,-96.5 335,-96.5 335,-96.5 411,-96.5 411,-96.5 417,-96.5 423,-102.5 423,-108.5 423,-108.5 423,-137.5 423,-137.5 423,-143.5 417,-149.5 411,-149.5"/>
<text text-anchor="middle" x="373" y="-134.3" font-family="Helvetica,sans-Serif" font-size="14.00">entropy = 0.0</text>
<text text-anchor="middle" x="373" y="-119.3" font-family="Helvetica,sans-Serif" font-size="14.00">samples = 2</text>
<text text-anchor="middle" x="373" y="-104.3" font-family="Helvetica,sans-Serif" font-size="14.00">value = [0, 2]</text>
</g>
<!-- 10&#45;&gt;11 -->
<g id="edge11" class="edge"><title>10&#45;&gt;11</title>
<path fill="none" stroke="black" d="M412.844,-192.884C406.419,-181.776 399.245,-169.372 392.773,-158.184"/>
<polygon fill="black" stroke="black" points="395.798,-156.424 387.762,-149.52 389.739,-159.929 395.798,-156.424"/>
</g>
<!-- 12 -->
<g id="node13" class="node"><title>12</title>
<path fill="forestgreen" stroke="black" d="M529,-149.5C529,-149.5 453,-149.5 453,-149.5 447,-149.5 441,-143.5 441,-137.5 441,-137.5 441,-108.5 441,-108.5 441,-102.5 447,-96.5 453,-96.5 453,-96.5 529,-96.5 529,-96.5 535,-96.5 541,-102.5 541,-108.5 541,-108.5 541,-137.5 541,-137.5 541,-143.5 535,-149.5 529,-149.5"/>
<text text-anchor="middle" x="491" y="-134.3" font-family="Helvetica,sans-Serif" font-size="14.00">entropy = 0.0</text>
<text text-anchor="middle" x="491" y="-119.3" font-family="Helvetica,sans-Serif" font-size="14.00">samples = 1</text>
<text text-anchor="middle" x="491" y="-104.3" font-family="Helvetica,sans-Serif" font-size="14.00">value = [1, 0]</text>
</g>
<!-- 10&#45;&gt;12 -->
<g id="edge12" class="edge"><title>10&#45;&gt;12</title>
<path fill="none" stroke="black" d="M451.156,-192.884C457.581,-181.776 464.755,-169.372 471.227,-158.184"/>
<polygon fill="black" stroke="black" points="474.261,-159.929 476.238,-149.52 468.202,-156.424 474.261,-159.929"/>
</g>
</g>
</svg>
